<svg width="28" height="28" fill="none" xmlns="http://www.w3.org/2000/svg"><path fill="currentColor" fill-rule="evenodd" d="M7.75 3.5A2.75 2.75 0 0 0 5 6.25v15.5A2.75 2.75 0 0 0 7.75 24.5h12.5A2.75 2.75 0 0 0 23 21.75V6.25A2.75 2.75 0 0 0 20.25 3.5H7.75ZM6.5 6.25c0-.69.56-1.25 1.25-1.25h12.5c.69 0 1.25.56 1.25 1.25v15.5c0 .69-.56 1.25-1.25 1.25H7.75c-.69 0-1.25-.56-1.25-1.25V6.25ZM9 9.25A.75.75 0 0 1 9.75 8.5h8.5a.75.75 0 0 1 0 1.5h-8.5A.75.75 0 0 1 9 9.25Zm0 4.5a.75.75 0 0 1 .75-.75h8.5a.75.75 0 0 1 0 1.5h-8.5a.75.75 0 0 1-.75-.75Zm.75 3.75a.75.75 0 0 0 0 1.5h5.5a.75.75 0 0 0 0-1.5h-5.5Z"/></svg>
